<?xml version="1.0" encoding="UTF-8" standalone="no"?>
<!DOCTYPE svg PUBLIC "-//W3C//DTD SVG 1.1//EN" "http://www.w3.org/Graphics/SVG/1.1/DTD/svg11.dtd">
<svg xmlns="http://www.w3.org/2000/svg" version="1.1" viewBox="0.00 0.00 292.00 290.00">
<g stroke-width="2.00" fill="none" stroke-linecap="butt">
<path stroke="#656c0e" vector-effect="non-scaling-stroke" d="
  M 241.79 198.04
  Q 240.88 198.04 241.29 197.23
  C 251.29 177.27 259.29 153.52 255.73 132.06
  Q 251.52 106.73 228.50 94.13
  A 2.13 2.10 2.9 0 1 227.56 93.11
  Q 226.02 89.58 223.65 86.69
  Q 222.24 84.98 221.39 82.77
  C 218.06 74.14 211.00 68.87 201.80 68.50
  C 188.38 67.96 177.93 73.70 173.08 86.38
  Q 172.87 86.94 172.29 87.03
  C 160.58 88.98 148.51 93.30 139.78 100.18
  C 132.85 105.65 127.15 114.16 126.86 123.06
  A 1.21 1.19 79.4 0 1 126.13 124.14
  Q 118.18 127.48 111.45 133.10
  C 92.35 149.07 93.29 175.98 101.69 197.35
  A 0.51 0.51 0.0 0 1 101.22 198.04
  L 81.78 198.04
  Q 80.77 198.04 79.95 198.64
  L 63.50 210.67
  A 5.96 5.90 -6.0 0 0 61.62 212.97
  L 58.18 220.37
  A 2.09 2.08 -84.6 0 1 56.78 221.53
  L 45.49 224.34
  A 7.55 7.33 19.3 0 0 42.95 225.52
  L 17.87 243.73
  Q 16.89 244.44 18.10 244.44
  L 243.68 244.43
  A 0.31 0.30 83.2 0 0 243.97 244.05
  L 240.23 229.75
  A 1.07 1.06 66.8 0 1 240.69 228.59
  Q 246.15 225.11 252.30 221.41
  Q 255.63 219.41 258.49 216.39
  Q 267.01 207.36 275.05 199.04
  Q 275.99 198.06 274.64 198.06
  L 241.79 198.04"
/>
<path stroke="#656c0e" vector-effect="non-scaling-stroke" d="
  M 217.28 127.58
  C 223.27 124.55 226.55 117.31 224.53 110.34
  A 1.33 1.31 -37.6 0 1 224.68 109.26
  Q 227.25 105.09 227.46 100.35
  A 0.50 0.50 0.0 0 0 226.96 99.83
  L 195.28 99.82
  Q 194.66 99.82 194.68 100.45
  Q 194.87 104.87 197.26 108.86
  Q 197.51 109.27 197.51 109.74
  C 197.50 111.78 196.92 113.62 197.11 115.69
  C 198.03 125.86 207.89 132.32 217.28 127.58"
/>
<path stroke="#656c0e" vector-effect="non-scaling-stroke" d="
  M 172.40 161.70
  Q 185.28 164.08 200.06 163.59
  A 0.46 0.46 0.0 0 1 200.53 164.05
  Q 200.46 181.42 195.03 197.45
  Q 194.83 198.03 195.44 198.03
  L 213.48 198.07
  A 0.90 0.88 -80.9 0 0 214.32 197.45
  Q 219.31 181.91 222.51 167.36
  Q 224.19 159.74 224.71 152.18
  A 0.33 0.32 -11.7 0 0 224.23 151.87
  C 205.94 161.71 184.33 159.39 165.03 155.09
  A 0.48 0.48 0.0 0 0 164.46 155.65
  Q 168.50 177.49 176.64 197.16
  Q 177.00 198.04 177.95 198.03
  L 181.58 198.01
  A 0.52 0.52 0.0 0 0 182.06 197.29
  Q 175.33 181.00 171.81 162.30
  Q 171.67 161.57 172.40 161.70"
/>
<path stroke="#656c0e" vector-effect="non-scaling-stroke" d="
  M 124.10 184.64
  L 130.14 197.58
  Q 130.36 198.05 130.87 198.05
  L 145.41 198.03
  A 0.50 0.49 -14.2 0 0 145.85 197.30
  Q 139.72 186.10 136.75 173.62
  A 0.60 0.60 0.0 0 0 135.77 173.31
  L 124.28 183.75
  A 0.78 0.78 0.0 0 0 124.10 184.64"
/>
</g>
<!-- <path fill="#000000" d="
  M 0.00 0.00
  L 292.00 0.00
  L 292.00 290.00
  L 0.00 290.00
  L 0.00 0.00
  Z
  M 241.79 198.04
  Q 240.88 198.04 241.29 197.23
  C 251.29 177.27 259.29 153.52 255.73 132.06
  Q 251.52 106.73 228.50 94.13
  A 2.13 2.10 2.9 0 1 227.56 93.11
  Q 226.02 89.58 223.65 86.69
  Q 222.24 84.98 221.39 82.77
  C 218.06 74.14 211.00 68.87 201.80 68.50
  C 188.38 67.96 177.93 73.70 173.08 86.38
  Q 172.87 86.94 172.29 87.03
  C 160.58 88.98 148.51 93.30 139.78 100.18
  C 132.85 105.65 127.15 114.16 126.86 123.06
  A 1.21 1.19 79.4 0 1 126.13 124.14
  Q 118.18 127.48 111.45 133.10
  C 92.35 149.07 93.29 175.98 101.69 197.35
  A 0.51 0.51 0.0 0 1 101.22 198.04
  L 81.78 198.04
  Q 80.77 198.04 79.95 198.64
  L 63.50 210.67
  A 5.96 5.90 -6.0 0 0 61.62 212.97
  L 58.18 220.37
  A 2.09 2.08 -84.6 0 1 56.78 221.53
  L 45.49 224.34
  A 7.55 7.33 19.3 0 0 42.95 225.52
  L 17.87 243.73
  Q 16.89 244.44 18.10 244.44
  L 243.68 244.43
  A 0.31 0.30 83.2 0 0 243.97 244.05
  L 240.23 229.75
  A 1.07 1.06 66.8 0 1 240.69 228.59
  Q 246.15 225.11 252.30 221.41
  Q 255.63 219.41 258.49 216.39
  Q 267.01 207.36 275.05 199.04
  Q 275.99 198.06 274.64 198.06
  L 241.79 198.04
  Z"
/> -->
<path fill="#cad71b" d="
  M 241.79 198.04
  L 274.64 198.06
  Q 275.99 198.06 275.05 199.04
  Q 267.01 207.36 258.49 216.39
  Q 255.63 219.41 252.30 221.41
  Q 246.15 225.11 240.69 228.59
  A 1.07 1.06 66.8 0 0 240.23 229.75
  L 243.97 244.05
  A 0.31 0.30 83.2 0 1 243.68 244.43
  L 18.10 244.44
  Q 16.89 244.44 17.87 243.73
  L 42.95 225.52
  A 7.55 7.33 19.3 0 1 45.49 224.34
  L 56.78 221.53
  A 2.09 2.08 -84.6 0 0 58.18 220.37
  L 61.62 212.97
  A 5.96 5.90 -6.0 0 1 63.50 210.67
  L 79.95 198.64
  Q 80.77 198.04 81.78 198.04
  L 101.22 198.04
  A 0.51 0.51 0.0 0 0 101.69 197.35
  C 93.29 175.98 92.35 149.07 111.45 133.10
  Q 118.18 127.48 126.13 124.14
  A 1.21 1.19 79.4 0 0 126.86 123.06
  C 127.15 114.16 132.85 105.65 139.78 100.18
  C 148.51 93.30 160.58 88.98 172.29 87.03
  Q 172.87 86.94 173.08 86.38
  C 177.93 73.70 188.38 67.96 201.80 68.50
  C 211.00 68.87 218.06 74.14 221.39 82.77
  Q 222.24 84.98 223.65 86.69
  Q 226.02 89.58 227.56 93.11
  A 2.13 2.10 2.9 0 0 228.50 94.13
  Q 251.52 106.73 255.73 132.06
  C 259.29 153.52 251.29 177.27 241.29 197.23
  Q 240.88 198.04 241.79 198.04
  Z
  M 217.28 127.58
  C 223.27 124.55 226.55 117.31 224.53 110.34
  A 1.33 1.31 -37.6 0 1 224.68 109.26
  Q 227.25 105.09 227.46 100.35
  A 0.50 0.50 0.0 0 0 226.96 99.83
  L 195.28 99.82
  Q 194.66 99.82 194.68 100.45
  Q 194.87 104.87 197.26 108.86
  Q 197.51 109.27 197.51 109.74
  C 197.50 111.78 196.92 113.62 197.11 115.69
  C 198.03 125.86 207.89 132.32 217.28 127.58
  Z
  M 172.40 161.70
  Q 185.28 164.08 200.06 163.59
  A 0.46 0.46 0.0 0 1 200.53 164.05
  Q 200.46 181.42 195.03 197.45
  Q 194.83 198.03 195.44 198.03
  L 213.48 198.07
  A 0.90 0.88 -80.9 0 0 214.32 197.45
  Q 219.31 181.91 222.51 167.36
  Q 224.19 159.74 224.71 152.18
  A 0.33 0.32 -11.7 0 0 224.23 151.87
  C 205.94 161.71 184.33 159.39 165.03 155.09
  A 0.48 0.48 0.0 0 0 164.46 155.65
  Q 168.50 177.49 176.64 197.16
  Q 177.00 198.04 177.95 198.03
  L 181.58 198.01
  A 0.52 0.52 0.0 0 0 182.06 197.29
  Q 175.33 181.00 171.81 162.30
  Q 171.67 161.57 172.40 161.70
  Z
  M 124.10 184.64
  L 130.14 197.58
  Q 130.36 198.05 130.87 198.05
  L 145.41 198.03
  A 0.50 0.49 -14.2 0 0 145.85 197.30
  Q 139.72 186.10 136.75 173.62
  A 0.60 0.60 0.0 0 0 135.77 173.31
  L 124.28 183.75
  A 0.78 0.78 0.0 0 0 124.10 184.64
  Z"
/>
<!-- <path fill="#000000" d="
  M 217.28 127.58
  C 207.89 132.32 198.03 125.86 197.11 115.69
  C 196.92 113.62 197.50 111.78 197.51 109.74
  Q 197.51 109.27 197.26 108.86
  Q 194.87 104.87 194.68 100.45
  Q 194.66 99.82 195.28 99.82
  L 226.96 99.83
  A 0.50 0.50 0.0 0 1 227.46 100.35
  Q 227.25 105.09 224.68 109.26
  A 1.33 1.31 -37.6 0 0 224.53 110.34
  C 226.55 117.31 223.27 124.55 217.28 127.58
  Z"
/> -->
<!-- <path fill="#000000" d="
  M 171.81 162.30
  Q 175.33 181.00 182.06 197.29
  A 0.52 0.52 0.0 0 1 181.58 198.01
  L 177.95 198.03
  Q 177.00 198.04 176.64 197.16
  Q 168.50 177.49 164.46 155.65
  A 0.48 0.48 0.0 0 1 165.03 155.09
  C 184.33 159.39 205.94 161.71 224.23 151.87
  A 0.33 0.32 -11.7 0 1 224.71 152.18
  Q 224.19 159.74 222.51 167.36
  Q 219.31 181.91 214.32 197.45
  A 0.90 0.88 -80.9 0 1 213.48 198.07
  L 195.44 198.03
  Q 194.83 198.03 195.03 197.45
  Q 200.46 181.42 200.53 164.05
  A 0.46 0.46 0.0 0 0 200.06 163.59
  Q 185.28 164.08 172.40 161.70
  Q 171.67 161.57 171.81 162.30
  Z"
/> -->
<!-- <path fill="#000000" d="
  M 130.14 197.58
  L 124.10 184.64
  A 0.78 0.78 0.0 0 1 124.28 183.75
  L 135.77 173.31
  A 0.60 0.60 0.0 0 1 136.75 173.62
  Q 139.72 186.10 145.85 197.30
  A 0.50 0.49 -14.2 0 1 145.41 198.03
  L 130.87 198.05
  Q 130.36 198.05 130.14 197.58
  Z"
/> -->
</svg>
